# xmcd
#
# Track frame offsets: 
#        150
#        15190
#        32901
#        46384
#        61867
#        79172
#        93086
#        115385
#        136144
#        156619
#        171150
#        186330
#        202787
#        222682
#        239396
#
# Disc length: 3530 seconds
#
# Revision: 0
# Processed by: cddbd v1.5.1PL2 Copyright (c) Steve Scherf et al.
# Submitted via: ExactAudioCopy v0.95b4
#
DISCID=cb0dc80f
DTITLE=Marilyn Manson - From the Vaults [disc 2]
DYEAR=2005
DGENRE=Metal
TTITLE0=The Love Song
TTITLE1=Personal Jesus
TTITLE2=The Fight Song
TTITLE3=Tainted Love
TTITLE4=The Dope Show
TTITLE5=Disposable Teens
TTITLE6=Sweet Dreams (are made of this)
TTITLE7=Lunchbox
TTITLE8=Tourniquet
TTITLE9=Rock is Dead
TTITLE10=Get Your Gunn
TTITLE11=The Nobodies
TTITLE12=The Long Hard Road Out of Hell
TTITLE13=The Beautiful People
TTITLE14=The Reflecting God
EXTD=
EXTT0=
EXTT1=
EXTT2=
EXTT3=
EXTT4=
EXTT5=
EXTT6=
EXTT7=
EXTT8=
EXTT9=
EXTT10=
EXTT11=
EXTT12=
EXTT13=
EXTT14=
PLAYORDER=
